<?xml version="1.0" encoding="utf-8"?>
<!-- Generator: Adobe Illustrator 16.0.4, SVG Export Plug-In . SVG Version: 6.00 Build 0)  -->
<!DOCTYPE svg PUBLIC "-//W3C//DTD SVG 1.1//EN" "http://www.w3.org/Graphics/SVG/1.1/DTD/svg11.dtd">
<svg version="1.1" xmlns="http://www.w3.org/2000/svg" xmlns:xlink="http://www.w3.org/1999/xlink" x="0px" y="0px" width="32px"
	 height="32px" viewBox="0 0 32 32" enable-background="new 0 0 32 32" xml:space="preserve">
<g id="Grid">
</g>
<g id="Layer_2">
	<g>
		<g>
			<g>
				<path fill="#ffffff" d="M21.4,4.8L20,6.2c2.5,2.5,4,6,4,9.8s-1.5,7.3-4,9.8l1.4,1.4C24.2,24.3,26,20.4,26,16C26,11.6,24.2,7.7,21.4,4.8z"/>
				<path fill="#ffffff" d="M25.6,0.5L24.2,2c3.6,3.6,5.8,8.6,5.8,14s-2.2,10.4-5.8,14l1.4,1.4C29.6,27.5,32,22,32,16S29.6,4.5,25.6,0.5z"/>
			</g>
		</g>
		<polygon fill="#ffffff" points="16,4 10,10 0,10 0,22 10,22 16,28 		"/>
	</g>
</g>
</svg>
