<?xml version="1.0" encoding="utf-8"?>
<!-- Generator: Adobe Illustrator 16.2.1, SVG Export Plug-In . SVG Version: 6.00 Build 0)  -->
<!DOCTYPE svg PUBLIC "-//W3C//DTD SVG 1.1//EN" "http://www.w3.org/Graphics/SVG/1.1/DTD/svg11.dtd">
<svg version="1.1" id="Layer_1" xmlns="http://www.w3.org/2000/svg" xmlns:xlink="http://www.w3.org/1999/xlink" x="0px" y="0px"
	 width="42px" height="42px" viewBox="0 0 42 42" enable-background="new 0 0 42 42" xml:space="preserve">
<g>
	<polygon fill="#FFFFFF" points="8.622,6.364 7.089,16.854 17.144,13.494 	"/>
	<g>
		<path fill="#FFFFFF" d="M9.923,9.923l2.628,2.629c4.667-4.667,12.232-4.667,16.898,0c4.667,4.666,4.667,12.231,0,16.897
			c-4.666,4.666-12.231,4.666-16.898,0c-2.333-2.332-3.5-5.391-3.5-8.448H5.334c0,4.008,1.529,8.018,4.589,11.077
			c6.118,6.117,16.038,6.117,22.155,0c6.118-6.117,6.118-16.037,0-22.155C25.961,3.805,16.041,3.805,9.923,9.923z"/>
	</g>
</g>
</svg>
