<svg xmlns="http://www.w3.org/2000/svg" xmlns:xlink="http://www.w3.org/1999/xlink" width="36" height="41" viewBox="0 0 36 41">
    <defs>
        <path id="a" d="M32 14.2h-.16l-1.48-.002 3.408-3.39L31.95 9l-6.82 6.78 6.82 6.78 1.818-1.807-3.376-3.358 1.447.002.161-.001c8.166 0 14.786 6.583 14.786 14.704 0 8.12-6.62 14.703-14.786 14.703-8.167 0-14.786-6.583-14.786-14.703 0-.017.003-.032.003-.049h-3.214c0 .017-.003.032-.003.049C14 41.986 22.059 50 32 50s18-8.014 18-17.9-8.059-17.9-18-17.9" transform="rotate(-30 32 32)"/>
    </defs>
    <g fill="none" fill-rule="evenodd" transform="translate(-14 -9)">
        <text fill="#FFF" font-family="Helvetica, Arial, sans-serif" font-size="14">
            <tspan x="24" y="38">10</tspan>
        </text>
        <path d="M0 0h64v64H0z"/>
        <use fill="#FFF" xlink:href="#a"/>
    </g>
</svg>
