<?xml version="1.0" encoding="UTF-8" standalone="no"?>
<!DOCTYPE svg PUBLIC "-//W3C//DTD SVG 1.1//EN" "http://www.w3.org/Graphics/SVG/1.1/DTD/svg11.dtd">
<svg
   xmlns:dc="http://purl.org/dc/elements/1.1/"
   xmlns:cc="http://creativecommons.org/ns#"
   xmlns:rdf="http://www.w3.org/1999/02/22-rdf-syntax-ns#"
   xmlns:svg="http://www.w3.org/2000/svg"
   xmlns="http://www.w3.org/2000/svg"
   width="70.959045mm"
   height="70.958496mm"
   viewBox="0 0 251.42969 251.42774"
   id="svg2"
   version="1.1">
  <defs
     id="defs4" />
  <metadata
     id="metadata7">
    <rdf:RDF>
      <cc:Work
         rdf:about="">
        <dc:format>image/svg+xml</dc:format>
        <dc:type
           rdf:resource="http://purl.org/dc/dcmitype/StillImage" />
        <dc:title></dc:title>
      </cc:Work>
    </rdf:RDF>
  </metadata>
  <g
     id="layer1"
     transform="translate(-151.42773,-700.93359)">
    <path
       style="opacity:1;fill:#ffffff;fill-opacity:1;fill-rule:evenodd;stroke:none;stroke-width:25;stroke-linecap:round;stroke-linejoin:round;stroke-miterlimit:4;stroke-dasharray:none;stroke-opacity:1"
       d="m 151.42773,700.93359 0,251.42774 251.42969,0 0,-251.42774 -251.42969,0 z m 121.57618,22.31446 c 10.94744,0 22.20687,0.84604 33.77734,2.53711 11.57047,1.60206 23.54061,4.04866 35.91211,7.34179 l 0,42.1875 c -10.94744,-4.8952 -21.62759,-8.58797 -32.04102,-11.08007 -10.41342,-2.49211 -20.24753,-3.73829 -29.5039,-3.73829 -12.2825,0 -21.36209,1.69013 -27.23633,5.07227 -5.87424,3.38214 -8.81055,8.63362 -8.81055,15.75391 0,5.34021 1.95884,9.52465 5.875,12.55078 4.00516,2.93712 11.21353,5.47329 21.62696,7.60937 l 21.89453,4.40625 c 22.16189,4.45018 37.91634,11.21265 47.26172,20.29102 9.34537,9.07836 14.01757,21.98412 14.01757,38.71679 0,21.98389 -6.54147,38.36143 -19.625,49.13086 -12.99452,10.68044 -32.88765,16.02149 -59.67773,16.02149 -12.63851,0 -25.32131,-1.20237 -38.04883,-3.60547 -12.72751,-2.4031 -25.45412,-5.9625 -38.18164,-10.67969 l 0,-43.39062 c 12.72752,6.76427 25.01018,11.88237 36.84766,15.35351 11.92648,3.38214 23.40691,5.07422 34.44336,5.07422 11.21445,0 19.80433,-1.86927 25.76757,-5.60742 5.96325,-3.73815 8.94336,-9.0792 8.94336,-16.02148 0,-6.23026 -2.04646,-11.03584 -6.14062,-14.41797 -4.00516,-3.38214 -12.05957,-6.40802 -24.16406,-9.07813 l -19.89258,-4.40625 c -19.93681,-4.27217 -34.53269,-11.0804 -43.78906,-20.42578 -9.16738,-9.34538 -13.75196,-21.94056 -13.75196,-37.7832 0,-19.84781 6.40809,-35.11059 19.22461,-45.79102 12.81652,-10.68043 31.24051,-16.02148 55.27149,-16.02148 z"
       id="rect4138" />
  </g>
</svg>
