<?xml version="1.0" encoding="utf-8"?>
<!-- Generator: Adobe Illustrator 16.2.1, SVG Export Plug-In . SVG Version: 6.00 Build 0)  -->
<!DOCTYPE svg PUBLIC "-//W3C//DTD SVG 1.1//EN" "http://www.w3.org/Graphics/SVG/1.1/DTD/svg11.dtd">
<svg version="1.1" id="Layer_1" xmlns="http://www.w3.org/2000/svg" xmlns:xlink="http://www.w3.org/1999/xlink" x="0px" y="0px"
	 width="100px" height="100px" viewBox="0 0 100 100" enable-background="new 0 0 100 100" xml:space="preserve">
<g>
	<defs>
		<path id="SVGID_1_" d="M41.134,59.203H28.125c0.07,12.803,10.21,17.838,21.682,17.838c10.982,0,21.751-4.059,21.751-16.718
			c0-9.021-7.272-12.379-14.48-14.411c-7.271-2.023-14.479-2.725-14.479-6.57c0-3.293,3.502-4.27,6.299-4.27
			c3.99,0,8.254,1.47,8.041,6.013H69.95C69.885,29.827,59.877,25,49.946,25c-9.373,0-20.349,4.264-20.349,15.183
			c0,9.161,7.482,12.379,14.613,14.402c7.206,2.032,14.336,2.87,14.336,7.278c0,3.711-4.055,5.105-7.973,5.105
			C45.05,66.969,41.414,65.076,41.134,59.203z M0,0h100v100H0V0z"/>
	</defs>
	<clipPath id="SVGID_2_">
		<use xlink:href="#SVGID_1_"  overflow="visible"/>
	</clipPath>
	<rect x="-23.81" y="-23.81" clip-path="url(#SVGID_2_)" fill="#FFFFFF" width="147.618" height="147.618"/>
</g>
</svg>
