<svg xmlns="http://www.w3.org/2000/svg" xmlns:xlink="http://www.w3.org/1999/xlink" width="48" height="48" viewBox="0 0 48 48">
    <defs>
        <path id="a" d="M27.48 17.609a9.787 9.787 0 0 1 2.828 6.891 9.782 9.782 0 0 1-2.83 6.891l-.874-.872a8.563 8.563 0 0 0 0-12.038l.876-.872zM30.09 15a13.46 13.46 0 0 1 3.91 9.5c0 3.705-1.494 7.06-3.91 9.5l-.877-.876a12.234 12.234 0 0 0 .001-17.248l.876-.876zm-6.245 2.128v14.744l-3.384-3.686H14v-7.372h6.462l3.384-3.686z"/>
    </defs>
    <g fill="none" fill-rule="evenodd">
        <mask id="b" fill="#fff">
            <use xlink:href="#a"/>
        </mask>
        <use fill="#fff" xlink:href="#a"/>
        <g fill="#fff" fill-rule="nonzero" mask="url(#b)">
            <path d="M0 0h48v48H0z"/>
        </g>
    </g>
</svg>
