<?xml version="1.0" encoding="utf-8"?>
<!-- Generator: Adobe Illustrator 16.0.4, SVG Export Plug-In . SVG Version: 6.00 Build 0)  -->
<!DOCTYPE svg PUBLIC "-//W3C//DTD SVG 1.1//EN" "http://www.w3.org/Graphics/SVG/1.1/DTD/svg11.dtd">
<svg version="1.1" xmlns="http://www.w3.org/2000/svg" xmlns:xlink="http://www.w3.org/1999/xlink" x="0px" y="0px" width="32px"
	 height="32px" viewBox="0 0 32 32" enable-background="new 0 0 32 32" xml:space="preserve">
<g id="Grid">
</g>
<g id="Layer_2">
	<g>
		<path d="M12,6.6v14.9c-1.1-1-2.5-1.5-4-1.5c-3.3,0-6,2.7-6,6s2.7,6,6,6c3.3,0,6-2.7,6-6v-0.5v-4v-6.9l14-5.3v7.2
			c-1.1-1-2.5-1.5-4-1.5c-3.3,0-6,2.7-6,6s2.7,6,6,6c3.3,0,6-2.7,6-6V0L12,6.6z M8,29c-1.7,0-3-1.3-3-3s1.3-3,3-3c1.7,0,3,1.3,3,3
			S9.7,29,8,29z M24,24c-1.7,0-3-1.3-3-3s1.3-3,3-3c1.7,0,3,1.3,3,3S25.7,24,24,24z"/>
	</g>
</g>
</svg>
