<?xml version="1.0" encoding="UTF-8" standalone="no"?>
<svg
   xmlns:dc="http://purl.org/dc/elements/1.1/"
   xmlns:cc="http://creativecommons.org/ns#"
   xmlns:rdf="http://www.w3.org/1999/02/22-rdf-syntax-ns#"
   xmlns:svg="http://www.w3.org/2000/svg"
   xmlns="http://www.w3.org/2000/svg"
   width="89mm"
   height="89mm"
   viewBox="-30 -30 345.35434 345.35433"
   id="svg2"
   version="1.1">
  <metadata
     id="metadata7">
    <rdf:RDF>
      <cc:Work
         rdf:about="">
        <dc:format>image/svg+xml</dc:format>
        <dc:type
           rdf:resource="http://purl.org/dc/dcmitype/StillImage" />
        <dc:title></dc:title>
      </cc:Work>
    </rdf:RDF>
  </metadata>
  <path
     style="opacity:1;fill:#ffffff;fill-opacity:1;fill-rule:evenodd;stroke:none;stroke-width:3.15799999;stroke-linecap:round;stroke-linejoin:round;stroke-miterlimit:4;stroke-dasharray:none;stroke-opacity:1"
     d="m 39.808995,0.26895923 c -15.79415,0 -28.50976,12.71561277 -28.50976,28.50976577 l 0,207.855475 c 0,15.79415 12.71561,28.50976 28.50976,28.50976 l 20.0586,0 c -8.91059,19.68004 -14.7882,25.40872 -43.10938,49.94141 46.44341,-14.82739 82.574951,-27.83505 121.132815,-49.94141 l 137.6543,0 c 15.79415,0 28.50977,-12.71561 28.50977,-28.50976 l 0,-207.855475 c 0,-15.794152 -12.71562,-28.50976577 -28.50977,-28.50976577 l -235.736335,0 z M 153.06291,15.718178 c 12.20388,0 24.75589,0.942972 37.6543,2.828125 12.89841,1.785933 26.24378,4.514461 40.03515,8.185546 l 0,47.029297 c -12.20388,-5.457019 -24.11018,-9.573443 -35.71875,-12.351562 -11.60857,-2.778119 -22.57385,-4.167969 -32.89258,-4.167969 -13.69215,0 -23.81095,1.885946 -30.35937,5.65625 -6.54843,3.770305 -9.82227,9.623064 -9.82227,17.560547 0,5.953112 2.18126,10.616804 6.54688,13.990234 4.46483,3.274212 12.50276,6.103134 24.11133,8.484384 l 24.40625,4.91015 c 24.70541,4.96093 42.2676,12.50276 52.68554,22.62305 10.41795,10.12029 15.62696,24.50512 15.62696,43.1582 0,24.50698 -7.29183,42.76409 -21.87696,54.76953 -14.4859,11.90623 -36.66061,17.85938 -66.52539,17.85938 -14.08903,0 -28.22776,-1.33868 -42.41601,-4.01758 -14.18826,-2.6789 -28.378165,-6.64767 -42.566415,-11.90625 l 0,-48.36914 c 14.18825,7.54061 27.88206,13.24571 41.078125,17.11523 13.29529,3.77031 26.09339,5.6543 38.39649,5.6543 12.50154,0 22.07697,-2.08282 28.72461,-6.25 6.64764,-4.16718 9.9707,-10.12033 9.9707,-17.85937 0,-6.9453 -2.28165,-12.30392 -6.8457,-16.07422 -4.46483,-3.77031 -13.44378,-7.14259 -26.9375,-10.11914 l -22.17578,-4.91211 c -22.22496,-4.76249 -38.497686,-12.35159 -48.816415,-22.76953 -10.21951,-10.41795 -15.32812,-24.45824 -15.32812,-42.11915 0,-22.125733 7.14417,-39.142603 21.431637,-51.048827 C 105.73709,21.671328 126.2739,15.718178 153.06291,15.718178 Z"
     id="rect4803" />
</svg>
