<?xml version="1.0" encoding="UTF-8" standalone="no"?>
<svg
   xmlns:dc="http://purl.org/dc/elements/1.1/"
   xmlns:cc="http://creativecommons.org/ns#"
   xmlns:rdf="http://www.w3.org/1999/02/22-rdf-syntax-ns#"
   xmlns:svg="http://www.w3.org/2000/svg"
   xmlns="http://www.w3.org/2000/svg"
   xmlns:sodipodi="http://sodipodi.sourceforge.net/DTD/sodipodi-0.dtd"
   xmlns:inkscape="http://www.inkscape.org/namespaces/inkscape"
   width="8"
   height="8"
   viewBox="0 0 8 8"
   id="svg2"
   version="1.1"
   inkscape:version="0.91 r13725"
   sodipodi:docname="timer-short.svg">
  <metadata
     id="metadata10">
    <rdf:RDF>
      <cc:Work
         rdf:about="">
        <dc:format>image/svg+xml</dc:format>
        <dc:type
           rdf:resource="http://purl.org/dc/dcmitype/StillImage" />
        <dc:title></dc:title>
      </cc:Work>
    </rdf:RDF>
  </metadata>
  <defs
     id="defs8" />
  <sodipodi:namedview
     pagecolor="#ffffff"
     bordercolor="#666666"
     borderopacity="1"
     objecttolerance="10"
     gridtolerance="10"
     guidetolerance="10"
     inkscape:pageopacity="0"
     inkscape:pageshadow="2"
     inkscape:window-width="1154"
     inkscape:window-height="732"
     id="namedview6"
     showgrid="false"
     inkscape:zoom="33.89"
     inkscape:cx="3.7459858"
     inkscape:cy="2.2013858"
     inkscape:window-x="1509"
     inkscape:window-y="105"
     inkscape:window-maximized="0"
     inkscape:current-layer="svg2" />
  <path
     sodipodi:nodetypes="ccccc"
     inkscape:connector-curvature="0"
     id="path4267"
     d="m 3.9075087,1.4036798 -0.01552,2.7711328 -0.04309,-0.00191 2.6170486,-1.1689398 C 5.8585693,2.0128433 5.5336975,1.559696 3.9075087,1.4036798 Z"
     style="opacity:1;fill:#29a6ff;fill-opacity:1;fill-rule:evenodd;stroke:none;stroke-width:3.15799999;stroke-linecap:round;stroke-linejoin:round;stroke-miterlimit:4;stroke-dasharray:none;stroke-opacity:1" />
  <g
     id="g4261"
     transform="translate(7.4966067,-3.2032891)">
    <path
       id="path4225"
       d="M -3.5117188,4.2519531 A 3.2457952,3.2457952 0 0 0 -6.7578125,7.4980469 3.2457952,3.2457952 0 0 0 -3.5117188,10.744141 3.2457952,3.2457952 0 0 0 -0.265625,7.4980469 3.2457952,3.2457952 0 0 0 -3.5117188,4.2519531 Z m 0,0.7539063 a 2.4933608,2.4933608 0 0 1 2.4941407,2.4921875 2.4933608,2.4933608 0 0 1 -2.4941407,2.4941406 2.4933608,2.4933608 0 0 1 -2.4921874,-2.4941406 2.4933608,2.4933608 0 0 1 2.4921874,-2.4921875 z"
       style="opacity:1;fill:#020000;fill-opacity:1;fill-rule:evenodd;stroke:none;stroke-width:3.15799999;stroke-linecap:round;stroke-linejoin:round;stroke-miterlimit:4;stroke-dasharray:none;stroke-opacity:1"
       inkscape:connector-curvature="0" />
    <rect
       transform="matrix(0.70026203,-0.71388591,0.71388591,0.70026203,0,0)"
       style="opacity:1;fill:#000000;fill-opacity:1;fill-rule:evenodd;stroke:none;stroke-width:3.15799999;stroke-linecap:round;stroke-linejoin:round;stroke-miterlimit:4;stroke-dasharray:none;stroke-opacity:1"
       id="rect4255"
       width="1.5048685"
       height="0.61965191"
       x="-8.5823822"
       y="-1.102623" />
    <rect
       y="3.6624372"
       x="-4.8244319"
       height="0.61965191"
       width="2.6261432"
       id="rect4257"
       style="opacity:1;fill:#000000;fill-opacity:1;fill-rule:evenodd;stroke:none;stroke-width:3.15799999;stroke-linecap:round;stroke-linejoin:round;stroke-miterlimit:4;stroke-dasharray:none;stroke-opacity:1" />
    <rect
       y="3.8897336"
       x="-3.6853006"
       height="0.61965191"
       width="1.5048685"
       id="rect4259"
       style="opacity:1;fill:#000000;fill-opacity:1;fill-rule:evenodd;stroke:none;stroke-width:3.15799999;stroke-linecap:round;stroke-linejoin:round;stroke-miterlimit:4;stroke-dasharray:none;stroke-opacity:1"
       transform="matrix(-0.70026203,-0.71388591,-0.71388591,0.70026203,0,0)" />
  </g>
</svg>
